<svg width="232" height="63" viewBox="0 0 232 63" fill="none" xmlns="http://www.w3.org/2000/svg">
<path d="M13.3332 36.6469C13.3332 29.3875 16.7589 21.4379 23.2038 16.7544C21.4046 15.9656 19.5069 15.5588 17.5476 15.5588C17.2519 15.5588 16.9684 15.5712 16.6727 15.5835C10.6838 15.8793 5.49595 19.6631 2.77262 25.0121C0.998143 28.5001 0 32.4564 0 36.6346C0 40.3937 0.813305 43.968 2.26739 47.1848C4.76891 52.7434 9.82124 56.8723 15.8717 57.5501C16.4262 57.6118 16.9808 57.6487 17.5476 57.6487C19.7041 57.6487 21.7497 57.1681 23.709 56.219C17.1286 51.5602 13.3332 43.9803 13.3332 36.6469Z" fill="#00B59A"/>
<path d="M46.26 19.7988C37.1165 10.2592 25.7426 10.9124 25.7426 10.9124C18.349 10.5304 11.1895 15.3494 11.1895 15.3494C11.1895 15.3494 20.8998 10.2592 30.0433 19.7864C33.2349 23.1142 38.2872 29.8806 42.403 36.0924L49.8706 24.1125C48.8108 22.6582 47.2335 20.8217 46.26 19.7988Z" fill="white"/>
<path d="M65.5567 12.8103C57.5839 26.565 49.2168 41.6632 40.8003 52.3243C37.6211 56.3546 33.8873 60.2862 28.9951 62.1473C33 61.6666 41.5027 60.9148 46.4072 53.4335C55.4767 39.5925 69.4384 15.0165 69.4384 15.0165" fill="white"/>
<path d="M64.6301 49.8927C61.7959 47.6003 60.5389 45.1106 56.7559 40.4764L58.7645 37.124C58.7645 37.124 64.322 45.0244 68.8445 48.8451C69.7564 49.7818 70.7052 50.7062 71.7773 51.5443C72.8617 52.3824 74.0324 53.1096 75.3139 53.7135C76.1642 54.0956 77.0638 54.416 78.0003 54.6625C74.9443 54.5639 69.4606 53.8121 64.6301 49.8927Z" fill="#00B59A"/>
<path d="M60.2088 51.9299C57.9784 50.1181 57.1774 48.4173 54.1953 44.7691C54.1953 44.7691 55.9082 41.6509 55.7726 42.0576C58.3481 45.0402 60.7387 48.1708 63.5236 51.1041C64.2507 51.8436 64.9901 52.5708 65.8403 53.224C66.7029 53.8773 67.6148 54.4565 68.6253 54.9249C69.303 55.233 70.0054 55.4795 70.7448 55.6767C68.3418 55.6151 64.0166 55.0112 60.2088 51.9299Z" fill="white"/>
<path d="M56.5255 53.5938C54.8003 52.2011 54.3567 51.0549 52.04 48.2325L53.223 46.1372C55.2193 48.442 56.9199 50.6975 59.0887 52.9529C59.6432 53.5199 60.2224 54.0868 60.8755 54.5922C61.5409 55.0975 62.2556 55.5412 63.0319 55.9109C63.5495 56.1451 64.104 56.3423 64.6709 56.4902C62.8101 56.4409 59.4707 55.9726 56.5255 53.5938Z" fill="white"/>
<path d="M57.8303 12.6499C48.2432 28.808 32.0141 65.783 11.2256 57.7348C27.7011 68.7903 38.4096 54.2961 48.9209 38.0887C55.6491 27.6987 57.8179 22.4606 63.4494 13.3894" fill="#00B59A"/>
<path d="M57.0133 8.43807L59.811 8.90429C58.802 10.8894 56.9977 13.9265 54.672 18.2174L51.5045 23.9594C53.0946 24.4759 54.6354 25.1772 56.2501 25.6197L56.57 25.0895L64.0771 12.2165C64.6186 11.267 64.5325 11.415 64.9263 10.7245L67.0224 12.3498L67.358 -0.000101017L57.0133 8.43807Z" fill="#00B59A"/>
<path d="M65.0636 10.7277L63.9422 9.76636L59.543 20.0084L65.0636 10.7277Z" fill="#00B59A"/>
<path d="M100.989 25.404H95.4448L94.5868 28H90.5828L95.9508 12.512H100.527L105.873 28H101.847L100.989 25.404ZM100.043 22.544L98.2168 17.044L96.3908 22.544H100.043ZM111.48 11.72V28H107.718V11.72H111.48ZM120.155 18.848H118.593V28H114.831V18.848H113.687V15.724H114.831V15.262C114.831 13.7073 115.241 12.5707 116.063 11.852C116.899 11.1333 118.204 10.774 119.979 10.774V13.964C119.48 13.964 119.121 14.0593 118.901 14.25C118.695 14.4407 118.593 14.778 118.593 15.262V15.724H120.155V18.848ZM126.863 15.592C128.433 15.592 129.635 16.1713 130.471 17.33V15.724H134.233V28H130.471V26.218C129.562 27.5087 128.359 28.154 126.863 28.154C125.851 28.154 124.913 27.89 124.047 27.362C123.197 26.834 122.522 26.0933 122.023 25.14C121.525 24.1867 121.275 23.1013 121.275 21.884C121.275 20.6667 121.525 19.5813 122.023 18.628C122.522 17.6747 123.197 16.934 124.047 16.406C124.913 15.8633 125.851 15.592 126.863 15.592ZM127.787 18.848C127.347 18.848 126.915 18.9653 126.489 19.2C126.079 19.42 125.741 19.7573 125.477 20.212C125.228 20.6667 125.103 21.224 125.103 21.884C125.103 22.544 125.228 23.1013 125.477 23.556C125.741 23.996 126.079 24.3333 126.489 24.568C126.9 24.788 127.333 24.898 127.787 24.898C128.227 24.898 128.653 24.788 129.063 24.568C129.489 24.3333 129.826 23.9887 130.075 23.534C130.339 23.0793 130.471 22.522 130.471 21.862C130.471 21.202 130.339 20.652 130.075 20.212C129.826 19.7573 129.496 19.42 129.085 19.2C128.675 18.9653 128.242 18.848 127.787 18.848Z" fill="#00B59A"/>
<path d="M141.301 21.994V28H137.539V12.556H143.633C144.835 12.556 145.862 12.776 146.713 13.216C147.578 13.656 148.223 14.2353 148.649 14.954C149.089 15.6727 149.309 16.45 149.309 17.286C149.309 17.99 149.133 18.7013 148.781 19.42C148.443 20.124 147.849 20.7327 146.999 21.246C146.148 21.7447 145.026 21.994 143.633 21.994H141.301ZM143.633 19.134C144.205 19.134 144.652 18.9653 144.975 18.628C145.312 18.2907 145.481 17.8433 145.481 17.286C145.481 16.7433 145.312 16.296 144.975 15.944C144.637 15.592 144.19 15.416 143.633 15.416H141.301V19.134H143.633ZM155.33 18.012C155.741 17.264 156.247 16.6773 156.848 16.252C157.449 15.812 158.117 15.592 158.85 15.592V19.42H157.926C157.061 19.42 156.408 19.6253 155.968 20.036C155.543 20.4467 155.33 21.1653 155.33 22.192V28H151.568V15.724H155.33V18.012ZM166.436 15.592C167.61 15.592 168.68 15.8487 169.648 16.362C170.631 16.8607 171.408 17.5867 171.98 18.54C172.552 19.4787 172.838 20.5787 172.838 21.84C172.838 23.1013 172.552 24.2087 171.98 25.162C171.423 26.1153 170.66 26.856 169.692 27.384C168.724 27.8973 167.646 28.154 166.458 28.154C165.27 28.154 164.185 27.8973 163.202 27.384C162.22 26.856 161.442 26.1153 160.87 25.162C160.298 24.2087 160.012 23.1013 160.012 21.84C160.012 20.5787 160.298 19.4787 160.87 18.54C161.442 17.5867 162.212 16.8607 163.18 16.362C164.163 15.8487 165.248 15.592 166.436 15.592ZM166.436 18.804C165.718 18.804 165.102 19.068 164.588 19.596C164.09 20.1093 163.84 20.8647 163.84 21.862C163.84 22.8593 164.097 23.622 164.61 24.15C165.138 24.678 165.754 24.942 166.458 24.942C167.162 24.942 167.764 24.678 168.262 24.15C168.761 23.622 169.01 22.8593 169.01 21.862C169.01 20.8647 168.754 20.1093 168.24 19.596C167.727 19.068 167.126 18.804 166.436 18.804Z" fill="white"/>
<path d="M97.4733 45.872H93.1613L92.4053 48H91.1033L94.6313 38.298H96.0313L99.5453 48H98.2293L97.4733 45.872ZM97.1093 44.864L95.3173 39.852L93.5253 44.864H97.1093ZM104.437 40.188C105.361 40.188 106.112 40.4027 106.691 40.832C107.279 41.2613 107.69 41.8727 107.923 42.666H106.551C106.402 42.218 106.145 41.868 105.781 41.616C105.417 41.364 104.969 41.238 104.437 41.238C103.709 41.238 103.121 41.4947 102.673 42.008C102.234 42.512 102.015 43.2307 102.015 44.164C102.015 45.088 102.234 45.8067 102.673 46.32C103.121 46.824 103.709 47.076 104.437 47.076C104.978 47.076 105.426 46.9547 105.781 46.712C106.136 46.4693 106.392 46.1147 106.551 45.648H107.923C107.69 46.404 107.274 47.006 106.677 47.454C106.089 47.902 105.342 48.126 104.437 48.126C103.718 48.126 103.074 47.9627 102.505 47.636C101.945 47.3093 101.506 46.8473 101.189 46.25C100.872 45.6433 100.713 44.948 100.713 44.164C100.713 43.3707 100.872 42.6753 101.189 42.078C101.506 41.4713 101.945 41.0047 102.505 40.678C103.065 40.3513 103.709 40.188 104.437 40.188ZM112.832 40.188C113.756 40.188 114.507 40.4027 115.086 40.832C115.674 41.2613 116.084 41.8727 116.318 42.666H114.946C114.796 42.218 114.54 41.868 114.176 41.616C113.812 41.364 113.364 41.238 112.832 41.238C112.104 41.238 111.516 41.4947 111.068 42.008C110.629 42.512 110.41 43.2307 110.41 44.164C110.41 45.088 110.629 45.8067 111.068 46.32C111.516 46.824 112.104 47.076 112.832 47.076C113.373 47.076 113.821 46.9547 114.176 46.712C114.53 46.4693 114.787 46.1147 114.946 45.648H116.318C116.084 46.404 115.669 47.006 115.072 47.454C114.484 47.902 113.737 48.126 112.832 48.126C112.113 48.126 111.469 47.9627 110.9 47.636C110.34 47.3093 109.901 46.8473 109.584 46.25C109.266 45.6433 109.108 44.948 109.108 44.164C109.108 43.3707 109.266 42.6753 109.584 42.078C109.901 41.4713 110.34 41.0047 110.9 40.678C111.46 40.3513 112.104 40.188 112.832 40.188ZM121.38 40.188C122.108 40.188 122.766 40.3513 123.354 40.678C123.942 41.0047 124.404 41.4713 124.74 42.078C125.085 42.6847 125.258 43.38 125.258 44.164C125.258 44.9387 125.081 45.6293 124.726 46.236C124.371 46.8333 123.891 47.3 123.284 47.636C122.677 47.9627 122.005 48.126 121.268 48.126C120.549 48.126 119.901 47.9627 119.322 47.636C118.753 47.3093 118.305 46.8473 117.978 46.25C117.661 45.6433 117.502 44.948 117.502 44.164C117.502 43.3707 117.67 42.6753 118.006 42.078C118.351 41.4713 118.818 41.0047 119.406 40.678C119.994 40.3513 120.652 40.188 121.38 40.188ZM121.338 41.238C120.871 41.238 120.447 41.35 120.064 41.574C119.681 41.798 119.373 42.1293 119.14 42.568C118.916 43.0067 118.804 43.5387 118.804 44.164C118.804 44.78 118.911 45.3073 119.126 45.746C119.35 46.1847 119.649 46.516 120.022 46.74C120.395 46.964 120.811 47.076 121.268 47.076C121.735 47.076 122.169 46.964 122.57 46.74C122.981 46.5067 123.312 46.1707 123.564 45.732C123.816 45.2933 123.942 44.7707 123.942 44.164C123.942 43.548 123.821 43.0207 123.578 42.582C123.345 42.134 123.027 41.798 122.626 41.574C122.234 41.35 121.805 41.238 121.338 41.238ZM133.544 40.314V48H132.27V46.768C132.018 47.216 131.672 47.5567 131.234 47.79C130.795 48.014 130.305 48.126 129.764 48.126C129.213 48.126 128.709 48.0047 128.252 47.762C127.804 47.51 127.444 47.1413 127.174 46.656C126.912 46.1707 126.782 45.578 126.782 44.878V40.314H128.042V44.668C128.042 45.4333 128.228 46.0213 128.602 46.432C128.984 46.8333 129.502 47.034 130.156 47.034C130.809 47.034 131.322 46.8333 131.696 46.432C132.078 46.0213 132.27 45.4333 132.27 44.668V40.314H133.544ZM139.423 40.188C139.973 40.188 140.473 40.314 140.921 40.566C141.378 40.8087 141.737 41.1773 141.999 41.672C142.269 42.1573 142.405 42.75 142.405 43.45V48H141.145V43.66C141.145 42.8853 140.958 42.2973 140.585 41.896C140.211 41.4947 139.693 41.294 139.031 41.294C138.377 41.294 137.859 41.4947 137.477 41.896C137.103 42.2973 136.917 42.8853 136.917 43.66V48H135.643V40.314H136.917V41.56C137.169 41.112 137.514 40.7713 137.953 40.538C138.391 40.3047 138.881 40.188 139.423 40.188ZM148.004 46.964V48H146.716C146.062 48 145.563 47.8413 145.218 47.524C144.882 47.2067 144.714 46.7073 144.714 46.026V41.35H143.72V40.314H144.714V38.41H146.002V40.314H147.99V41.35H146.002V46.026C146.002 46.3713 146.072 46.614 146.212 46.754C146.352 46.894 146.599 46.964 146.954 46.964H148.004ZM149.2 38.214C149.2 37.9713 149.284 37.766 149.452 37.598C149.62 37.43 149.821 37.346 150.054 37.346C150.297 37.346 150.502 37.43 150.67 37.598C150.838 37.766 150.922 37.9713 150.922 38.214C150.922 38.4567 150.838 38.662 150.67 38.83C150.502 38.998 150.297 39.082 150.054 39.082C149.812 39.082 149.606 38.998 149.438 38.83C149.28 38.662 149.2 38.4567 149.2 38.214ZM150.684 40.314V48H149.41V40.314H150.684ZM156.567 40.188C157.118 40.188 157.617 40.314 158.065 40.566C158.523 40.8087 158.882 41.1773 159.143 41.672C159.414 42.1573 159.549 42.75 159.549 43.45V48H158.289V43.66C158.289 42.8853 158.103 42.2973 157.729 41.896C157.356 41.4947 156.838 41.294 156.175 41.294C155.522 41.294 155.004 41.4947 154.621 41.896C154.248 42.2973 154.061 42.8853 154.061 43.66V48H152.787V40.314H154.061V41.56C154.313 41.112 154.659 40.7713 155.097 40.538C155.536 40.3047 156.026 40.188 156.567 40.188ZM164.742 40.188C165.396 40.188 165.965 40.342 166.45 40.65C166.945 40.958 167.318 41.3593 167.57 41.854V40.314H168.858V48.196C168.858 48.896 168.704 49.5167 168.396 50.058C168.088 50.5993 167.654 51.0193 167.094 51.318C166.534 51.626 165.886 51.78 165.148 51.78C164.504 51.78 163.916 51.668 163.384 51.444C162.852 51.2293 162.418 50.9213 162.082 50.52C161.746 50.1187 161.546 49.6613 161.48 49.148H162.726C162.848 49.5867 163.132 49.9507 163.58 50.24C164.028 50.5293 164.551 50.674 165.148 50.674C165.876 50.674 166.46 50.4547 166.898 50.016C167.346 49.5867 167.57 48.98 167.57 48.196V46.432C167.318 46.936 166.945 47.3467 166.45 47.664C165.965 47.972 165.396 48.126 164.742 48.126C164.052 48.126 163.426 47.958 162.866 47.622C162.316 47.2767 161.877 46.8007 161.55 46.194C161.233 45.578 161.074 44.8827 161.074 44.108C161.074 43.3333 161.233 42.652 161.55 42.064C161.877 41.4667 162.316 41.0047 162.866 40.678C163.426 40.3513 164.052 40.188 164.742 40.188ZM164.966 41.294C164.509 41.294 164.08 41.406 163.678 41.63C163.286 41.854 162.969 42.1807 162.726 42.61C162.493 43.03 162.376 43.5293 162.376 44.108C162.376 44.6867 162.493 45.2 162.726 45.648C162.969 46.0867 163.286 46.4273 163.678 46.67C164.08 46.9127 164.509 47.034 164.966 47.034C165.433 47.034 165.862 46.9173 166.254 46.684C166.656 46.4507 166.973 46.1193 167.206 45.69C167.449 45.2513 167.57 44.7427 167.57 44.164C167.57 43.5853 167.449 43.0813 167.206 42.652C166.973 42.2133 166.656 41.8773 166.254 41.644C165.862 41.4107 165.433 41.294 164.966 41.294ZM181.482 45.284C181.482 45.7693 181.356 46.2267 181.104 46.656C180.852 47.0853 180.479 47.4353 179.984 47.706C179.49 47.9673 178.897 48.098 178.206 48.098C177.59 48.098 177.035 48 176.54 47.804C176.046 47.5987 175.654 47.3093 175.364 46.936C175.084 46.5533 174.944 46.1007 174.944 45.578H176.302C176.34 46.0167 176.512 46.3713 176.82 46.642C177.138 46.9127 177.6 47.048 178.206 47.048C178.832 47.048 179.326 46.8893 179.69 46.572C180.054 46.2547 180.236 45.8487 180.236 45.354C180.236 44.9807 180.134 44.6867 179.928 44.472C179.723 44.248 179.466 44.08 179.158 43.968C178.85 43.856 178.44 43.744 177.926 43.632C177.282 43.4827 176.76 43.3287 176.358 43.17C175.966 43.0113 175.63 42.7547 175.35 42.4C175.08 42.0453 174.944 41.5553 174.944 40.93C174.944 40.3887 175.075 39.9127 175.336 39.502C175.598 39.0913 175.971 38.774 176.456 38.55C176.951 38.3167 177.525 38.2 178.178 38.2C179.065 38.2 179.784 38.4193 180.334 38.858C180.894 39.2873 181.216 39.8847 181.3 40.65H179.886C179.849 40.2673 179.667 39.9407 179.34 39.67C179.023 39.3993 178.594 39.264 178.052 39.264C177.502 39.264 177.054 39.404 176.708 39.684C176.363 39.9547 176.19 40.356 176.19 40.888C176.19 41.2707 176.293 41.574 176.498 41.798C176.704 42.022 176.956 42.19 177.254 42.302C177.562 42.414 177.987 42.5307 178.528 42.652C179.163 42.8013 179.676 42.9553 180.068 43.114C180.46 43.2633 180.792 43.5107 181.062 43.856C181.342 44.2013 181.482 44.6773 181.482 45.284ZM190.343 43.842C190.343 44.1127 190.325 44.3647 190.287 44.598H184.169C184.207 45.3633 184.445 45.97 184.883 46.418C185.331 46.8567 185.901 47.076 186.591 47.076C187.114 47.076 187.553 46.9593 187.907 46.726C188.271 46.4927 188.537 46.1847 188.705 45.802H190.077C189.835 46.474 189.415 47.0293 188.817 47.468C188.229 47.9067 187.487 48.126 186.591 48.126C185.873 48.126 185.229 47.9627 184.659 47.636C184.099 47.3093 183.661 46.8473 183.343 46.25C183.026 45.6433 182.867 44.948 182.867 44.164C182.867 43.3707 183.026 42.6753 183.343 42.078C183.661 41.4713 184.109 41.0047 184.687 40.678C185.266 40.3513 185.933 40.188 186.689 40.188C187.408 40.188 188.043 40.3467 188.593 40.664C189.144 40.9813 189.573 41.4153 189.881 41.966C190.189 42.5167 190.343 43.142 190.343 43.842ZM189.013 43.674C189.013 43.1793 188.906 42.75 188.691 42.386C188.477 42.0127 188.183 41.728 187.809 41.532C187.445 41.336 187.039 41.238 186.591 41.238C185.929 41.238 185.373 41.4573 184.925 41.896C184.477 42.3253 184.23 42.918 184.183 43.674H189.013ZM193.204 41.616C193.661 40.664 194.441 40.188 195.542 40.188V41.518H195.206C194.553 41.518 194.053 41.6907 193.708 42.036C193.372 42.372 193.204 42.96 193.204 43.8V48H191.93V40.314H193.204V41.616ZM199.912 46.81L202.278 40.314H203.65L200.64 48H199.198L196.202 40.314H197.56L199.912 46.81ZM204.653 38.214C204.653 37.9713 204.737 37.766 204.905 37.598C205.073 37.43 205.274 37.346 205.507 37.346C205.75 37.346 205.955 37.43 206.123 37.598C206.291 37.766 206.375 37.9713 206.375 38.214C206.375 38.4567 206.291 38.662 206.123 38.83C205.955 38.998 205.75 39.082 205.507 39.082C205.265 39.082 205.059 38.998 204.891 38.83C204.733 38.662 204.653 38.4567 204.653 38.214ZM206.137 40.314V48H204.863V40.314H206.137ZM211.46 40.188C212.384 40.188 213.136 40.4027 213.714 40.832C214.302 41.2613 214.713 41.8727 214.946 42.666H213.574C213.425 42.218 213.168 41.868 212.804 41.616C212.44 41.364 211.992 41.238 211.46 41.238C210.732 41.238 210.144 41.4947 209.696 42.008C209.258 42.512 209.038 43.2307 209.038 44.164C209.038 45.088 209.258 45.8067 209.696 46.32C210.144 46.824 210.732 47.076 211.46 47.076C212.002 47.076 212.45 46.9547 212.804 46.712C213.159 46.4693 213.416 46.1147 213.574 45.648H214.946C214.713 46.404 214.298 47.006 213.7 47.454C213.112 47.902 212.366 48.126 211.46 48.126C210.742 48.126 210.098 47.9627 209.528 47.636C208.968 47.3093 208.53 46.8473 208.212 46.25C207.895 45.6433 207.736 44.948 207.736 44.164C207.736 43.3707 207.895 42.6753 208.212 42.078C208.53 41.4713 208.968 41.0047 209.528 40.678C210.088 40.3513 210.732 40.188 211.46 40.188ZM223.607 43.842C223.607 44.1127 223.588 44.3647 223.551 44.598H217.433C217.47 45.3633 217.708 45.97 218.147 46.418C218.595 46.8567 219.164 47.076 219.855 47.076C220.378 47.076 220.816 46.9593 221.171 46.726C221.535 46.4927 221.801 46.1847 221.969 45.802H223.341C223.098 46.474 222.678 47.0293 222.081 47.468C221.493 47.9067 220.751 48.126 219.855 48.126C219.136 48.126 218.492 47.9627 217.923 47.636C217.363 47.3093 216.924 46.8473 216.607 46.25C216.29 45.6433 216.131 44.948 216.131 44.164C216.131 43.3707 216.29 42.6753 216.607 42.078C216.924 41.4713 217.372 41.0047 217.951 40.678C218.53 40.3513 219.197 40.188 219.953 40.188C220.672 40.188 221.306 40.3467 221.857 40.664C222.408 40.9813 222.837 41.4153 223.145 41.966C223.453 42.5167 223.607 43.142 223.607 43.842ZM222.277 43.674C222.277 43.1793 222.17 42.75 221.955 42.386C221.74 42.0127 221.446 41.728 221.073 41.532C220.709 41.336 220.303 41.238 219.855 41.238C219.192 41.238 218.637 41.4573 218.189 41.896C217.741 42.3253 217.494 42.918 217.447 43.674H222.277ZM227.84 40.188C228.67 40.188 229.328 40.4073 229.814 40.846C230.299 41.2753 230.565 41.868 230.612 42.624H229.296C229.277 42.1947 229.132 41.8493 228.862 41.588C228.591 41.3267 228.218 41.196 227.742 41.196C227.256 41.196 226.874 41.3127 226.594 41.546C226.323 41.77 226.188 42.0547 226.188 42.4C226.188 42.6893 226.272 42.9227 226.44 43.1C226.617 43.268 226.832 43.394 227.084 43.478C227.345 43.562 227.695 43.6507 228.134 43.744C228.694 43.8747 229.142 44.0053 229.478 44.136C229.823 44.2573 230.117 44.4673 230.36 44.766C230.602 45.0553 230.724 45.452 230.724 45.956C230.724 46.376 230.602 46.754 230.36 47.09C230.117 47.4167 229.776 47.6733 229.338 47.86C228.899 48.0373 228.395 48.126 227.826 48.126C226.967 48.126 226.276 47.9113 225.754 47.482C225.24 47.0527 224.96 46.46 224.914 45.704H226.23C226.248 46.1333 226.398 46.4787 226.678 46.74C226.967 46.992 227.35 47.118 227.826 47.118C228.348 47.118 228.75 47.0107 229.03 46.796C229.319 46.5813 229.464 46.2967 229.464 45.942C229.464 45.6527 229.375 45.424 229.198 45.256C229.03 45.0787 228.815 44.948 228.554 44.864C228.292 44.7707 227.933 44.6727 227.476 44.57C226.925 44.4487 226.477 44.3273 226.132 44.206C225.796 44.0753 225.506 43.8747 225.264 43.604C225.03 43.3333 224.914 42.96 224.914 42.484C224.914 42.064 225.03 41.6813 225.264 41.336C225.506 40.9813 225.847 40.7013 226.286 40.496C226.734 40.2907 227.252 40.188 227.84 40.188Z" fill="white"/>
</svg>
